<svg width="60" height="50" viewBox="0 0 60 50" fill="none" xmlns="http://www.w3.org/2000/svg">
<path d="M14.436 30.592C14.436 29.584 14.136 28.768 13.536 28.144C12.936 27.496 12.18 26.932 11.268 26.452C10.38 25.948 9.408 25.48 8.352 25.048C7.296 24.616 6.312 24.1 5.4 23.5C4.512 22.876 3.768 22.12 3.168 21.232C2.568 20.32 2.268 19.168 2.268 17.776C2.268 15.808 2.952 14.248 4.32 13.096C5.688 11.944 7.632 11.368 10.152 11.368C11.616 11.368 12.948 11.476 14.148 11.692C15.348 11.908 16.284 12.184 16.956 12.52L16.056 15.148C15.504 14.884 14.688 14.632 13.608 14.392C12.552 14.152 11.352 14.032 10.008 14.032C8.424 14.032 7.236 14.392 6.444 15.112C5.652 15.808 5.256 16.636 5.256 17.596C5.256 18.532 5.556 19.312 6.156 19.936C6.756 20.56 7.5 21.124 8.388 21.628C9.3 22.108 10.284 22.588 11.34 23.068C12.396 23.548 13.368 24.112 14.256 24.76C15.168 25.384 15.924 26.14 16.524 27.028C17.124 27.916 17.424 29.02 17.424 30.34C17.424 31.42 17.232 32.392 16.848 33.256C16.464 34.12 15.9 34.864 15.156 35.488C14.412 36.112 13.512 36.592 12.456 36.928C11.4 37.264 10.2 37.432 8.856 37.432C7.056 37.432 5.568 37.288 4.392 37C3.216 36.736 2.304 36.436 1.656 36.1L2.664 33.4C3.216 33.712 4.032 34.024 5.112 34.336C6.192 34.624 7.404 34.768 8.748 34.768C9.54 34.768 10.284 34.696 10.98 34.552C11.676 34.384 12.276 34.132 12.78 33.796C13.284 33.436 13.68 32.992 13.968 32.464C14.28 31.936 14.436 31.312 14.436 30.592ZM51.662 11.8H54.65V37H51.662V11.8Z" fill="black"/>
<g filter="url(#filter0_d)">
<path d="M31.324 24.184L23.656 11.8H27.256L32.368 20.332L33.268 22.384L34.132 20.332L39.532 11.8H42.844L34.924 23.932L43.204 37H39.712L34.024 27.964L33.052 25.804L32.116 27.964L26.284 37H22.936L31.324 24.184Z" fill="#92E4D0"/>
</g>
<defs>
<filter id="filter0_d" x="13.936" y="6.80005" width="38.268" height="43.2" filterUnits="userSpaceOnUse" color-interpolation-filters="sRGB">
<feFlood flood-opacity="0" result="BackgroundImageFix"/>
<feColorMatrix in="SourceAlpha" type="matrix" values="0 0 0 0 0 0 0 0 0 0 0 0 0 0 0 0 0 0 127 0"/>
<feOffset dy="4"/>
<feGaussianBlur stdDeviation="4.5"/>
<feColorMatrix type="matrix" values="0 0 0 0 0.572549 0 0 0 0 0.894118 0 0 0 0 0.815686 0 0 0 0.65 0"/>
<feBlend mode="normal" in2="BackgroundImageFix" result="effect1_dropShadow"/>
<feBlend mode="normal" in="SourceGraphic" in2="effect1_dropShadow" result="shape"/>
</filter>
</defs>
</svg>
