<svg width="258" height="250" viewBox="0 0 258 250" fill="none" xmlns="http://www.w3.org/2000/svg">
<path opacity="0.2" d="M25.6289 67H19.0898V23.6523L5.97656 28.4688V22.5625L24.6094 15.5664H25.6289V67Z" fill="#77DDC4"/>
<path opacity="0.8" d="M22.7812 59H16.9688V20.4688L5.3125 24.75V19.5L21.875 13.2812H22.7812V59Z" fill="#77DDC4"/>
<path d="M64.4067 39.042V46H62.063V28.2266H68.6182C70.5632 28.2266 72.085 28.723 73.1836 29.7158C74.2904 30.7087 74.8438 32.0229 74.8438 33.6587C74.8438 35.384 74.3026 36.7145 73.2202 37.6504C72.146 38.5781 70.6038 39.042 68.5938 39.042H64.4067ZM64.4067 37.1255H68.6182C69.8714 37.1255 70.8317 36.8325 71.499 36.2466C72.1663 35.6525 72.5 34.798 72.5 33.6831C72.5 32.6252 72.1663 31.7788 71.499 31.144C70.8317 30.5093 69.9162 30.1797 68.7524 30.1553H64.4067V37.1255ZM82.7905 46.2441C81.0002 46.2441 79.5435 45.6582 78.4204 44.4863C77.2974 43.3063 76.7358 41.7316 76.7358 39.7622V39.3472C76.7358 38.0369 76.984 36.8691 77.4805 35.8438C77.985 34.8102 78.6849 34.0046 79.5801 33.4268C80.4834 32.8408 81.46 32.5479 82.5098 32.5479C84.2269 32.5479 85.5615 33.1134 86.5137 34.2446C87.4658 35.3758 87.9419 36.9953 87.9419 39.103V40.043H78.9941C79.0267 41.3451 79.4051 42.3989 80.1294 43.2046C80.8618 44.0021 81.7896 44.4009 82.9126 44.4009C83.7101 44.4009 84.3856 44.2381 84.939 43.9126C85.4924 43.5871 85.9766 43.1558 86.3916 42.6187L87.771 43.6929C86.6642 45.3937 85.0041 46.2441 82.7905 46.2441ZM82.5098 34.4033C81.5983 34.4033 80.8333 34.737 80.2148 35.4043C79.5964 36.0635 79.2139 36.9912 79.0674 38.1875H85.6836V38.0166C85.6185 36.8691 85.3092 35.9821 84.7559 35.3555C84.2025 34.7207 83.4538 34.4033 82.5098 34.4033ZM99.0991 34.6597H93.0078V46H90.7373V32.792H99.0991V34.6597ZM109.609 32.792H111.868V46H109.609V36.3687L103.518 46H101.26V32.792H103.518V42.4355L109.609 32.792ZM120.791 44.4009C121.597 44.4009 122.301 44.1567 122.903 43.6685C123.505 43.1802 123.839 42.5698 123.904 41.8374H126.04C125.999 42.5942 125.739 43.3145 125.259 43.998C124.779 44.6816 124.136 45.2269 123.33 45.6338C122.533 46.0407 121.686 46.2441 120.791 46.2441C118.993 46.2441 117.56 45.646 116.494 44.4497C115.436 43.2453 114.907 41.6014 114.907 39.5181V39.1396C114.907 37.8538 115.143 36.7104 115.615 35.7095C116.087 34.7085 116.763 33.9313 117.642 33.3779C118.529 32.8245 119.574 32.5479 120.779 32.5479C122.26 32.5479 123.489 32.9914 124.465 33.8784C125.45 34.7655 125.975 35.917 126.04 37.333H123.904C123.839 36.4785 123.513 35.7786 122.927 35.2334C122.349 34.68 121.633 34.4033 120.779 34.4033C119.631 34.4033 118.74 34.8184 118.105 35.6484C117.479 36.4704 117.166 37.6626 117.166 39.2251V39.6523C117.166 41.1742 117.479 42.346 118.105 43.168C118.732 43.9899 119.627 44.4009 120.791 44.4009ZM138.394 34.623H133.962V46H131.704V34.623H127.358V32.792H138.394V34.623ZM151.748 39.5425C151.748 41.5526 151.288 43.172 150.369 44.4009C149.449 45.6297 148.204 46.2441 146.633 46.2441C145.03 46.2441 143.769 45.7355 142.849 44.7183V51.0781H140.591V32.792H142.654L142.764 34.2568C143.683 33.1175 144.961 32.5479 146.597 32.5479C148.184 32.5479 149.437 33.146 150.356 34.3423C151.284 35.5386 151.748 37.2028 151.748 39.335V39.5425ZM149.49 39.2861C149.49 37.7969 149.172 36.6209 148.538 35.7583C147.903 34.8957 147.032 34.4644 145.925 34.4644C144.558 34.4644 143.533 35.0706 142.849 36.2832V42.5942C143.525 43.7987 144.558 44.4009 145.95 44.4009C147.032 44.4009 147.891 43.9736 148.525 43.1191C149.168 42.2565 149.49 40.9788 149.49 39.2861ZM162.783 46C162.653 45.7396 162.547 45.2757 162.466 44.6084C161.416 45.6989 160.163 46.2441 158.706 46.2441C157.404 46.2441 156.334 45.8779 155.496 45.1455C154.666 44.4049 154.25 43.4691 154.25 42.3379C154.25 40.9626 154.771 39.8965 155.813 39.1396C156.863 38.3747 158.336 37.9922 160.232 37.9922H162.429V36.9546C162.429 36.1652 162.193 35.5386 161.721 35.0747C161.249 34.6027 160.553 34.3667 159.634 34.3667C158.828 34.3667 158.153 34.5701 157.607 34.9771C157.062 35.384 156.79 35.8763 156.79 36.4541H154.519C154.519 35.7949 154.751 35.1602 155.215 34.5498C155.687 33.9313 156.322 33.443 157.119 33.085C157.925 32.7269 158.808 32.5479 159.768 32.5479C161.29 32.5479 162.482 32.9303 163.345 33.6953C164.207 34.4521 164.655 35.4979 164.688 36.8325V42.9116C164.688 44.1242 164.842 45.0885 165.151 45.8047V46H162.783ZM159.036 44.2788C159.744 44.2788 160.415 44.0957 161.05 43.7295C161.685 43.3633 162.144 42.8872 162.429 42.3013V39.5913H160.659C157.892 39.5913 156.509 40.401 156.509 42.0205C156.509 42.7285 156.745 43.2819 157.217 43.6807C157.689 44.0794 158.295 44.2788 159.036 44.2788ZM168.423 32.792H170.693V44.1567H176.772V32.792H179.031V44.1567H180.605L180.386 49.9185H178.359V46H168.423V32.792ZM191.592 32.792H193.85V46H191.592V36.3687L185.5 46H183.242V32.792H185.5V42.4355L191.592 32.792ZM207.571 32.792V46H205.3V40.8608H201.895L198.782 46H196.34L199.661 40.519C198.814 40.2098 198.163 39.7337 197.708 39.0908C197.26 38.4398 197.036 37.6829 197.036 36.8203C197.036 35.6159 197.488 34.6475 198.391 33.915C199.294 33.1745 200.503 32.8001 202.017 32.792H207.571ZM199.307 36.8447C199.307 37.4876 199.526 38.0085 199.966 38.4072C200.405 38.7979 200.987 38.9972 201.711 39.0054H205.3V34.623H202.053C201.215 34.623 200.548 34.8306 200.051 35.2456C199.555 35.6525 199.307 36.1855 199.307 36.8447Z" fill="white"/>
<path opacity="0.2" d="M37.793 151H4.25391V146.324L21.9727 126.637C24.5977 123.66 26.4023 121.246 27.3867 119.395C28.3945 117.52 28.8984 115.586 28.8984 113.594C28.8984 110.922 28.0898 108.73 26.4727 107.02C24.8555 105.309 22.6992 104.453 20.0039 104.453C16.7695 104.453 14.25 105.379 12.4453 107.23C10.6641 109.059 9.77344 111.613 9.77344 114.895H3.26953C3.26953 110.184 4.78125 106.375 7.80469 103.469C10.8516 100.562 14.918 99.1094 20.0039 99.1094C24.7617 99.1094 28.5234 100.363 31.2891 102.871C34.0547 105.355 35.4375 108.672 35.4375 112.82C35.4375 117.859 32.2266 123.859 25.8047 130.82L12.0938 145.691H37.793V151Z" fill="#77DDC4"/>
<path opacity="0.8" d="M33.5938 143H3.78125V138.844L19.5312 121.344C21.8646 118.698 23.4688 116.552 24.3438 114.906C25.2396 113.24 25.6875 111.521 25.6875 109.75C25.6875 107.375 24.9688 105.427 23.5312 103.906C22.0938 102.385 20.1771 101.625 17.7812 101.625C14.9062 101.625 12.6667 102.448 11.0625 104.094C9.47917 105.719 8.6875 107.99 8.6875 110.906H2.90625C2.90625 106.719 4.25 103.333 6.9375 100.75C9.64583 98.1667 13.2604 96.875 17.7812 96.875C22.0104 96.875 25.3542 97.9896 27.8125 100.219C30.2708 102.427 31.5 105.375 31.5 109.062C31.5 113.542 28.6458 118.875 22.9375 125.062L10.75 138.281H33.5938V143Z" fill="#77DDC4"/>
<path d="M71.8774 125.361H64.4312L62.7588 130H60.3418L67.1289 112.227H69.1797L75.979 130H73.5742L71.8774 125.361ZM65.1392 123.433H71.1816L68.1543 115.12L65.1392 123.433ZM78.2251 130V116.792H83.3765C85.1343 116.792 86.4811 117.101 87.417 117.72C88.361 118.33 88.833 119.229 88.833 120.417C88.833 121.028 88.6499 121.581 88.2837 122.078C87.9175 122.566 87.3763 122.94 86.6602 123.201C87.4577 123.388 88.0965 123.754 88.5767 124.299C89.0649 124.845 89.3091 125.496 89.3091 126.252C89.3091 127.465 88.8615 128.393 87.9663 129.036C87.0793 129.679 85.8219 130 84.1943 130H78.2251ZM80.4834 124.202V128.181H84.2188C85.1628 128.181 85.8667 128.006 86.3306 127.656C86.8026 127.306 87.0386 126.814 87.0386 126.179C87.0386 124.861 86.0701 124.202 84.1333 124.202H80.4834ZM80.4834 122.395H83.4009C85.5168 122.395 86.5747 121.777 86.5747 120.54C86.5747 119.303 85.5737 118.664 83.5718 118.623H80.4834V122.395ZM101.968 118.623H97.5366V130H95.2783V118.623H90.9326V116.792H101.968V118.623ZM103.054 123.274C103.054 121.98 103.306 120.816 103.811 119.783C104.324 118.749 105.032 117.952 105.935 117.39C106.847 116.829 107.884 116.548 109.048 116.548C110.846 116.548 112.299 117.17 113.406 118.416C114.521 119.661 115.078 121.317 115.078 123.384V123.542C115.078 124.828 114.83 125.984 114.333 127.009C113.845 128.027 113.141 128.82 112.222 129.39C111.31 129.959 110.26 130.244 109.072 130.244C107.282 130.244 105.829 129.622 104.714 128.376C103.608 127.131 103.054 125.483 103.054 123.433V123.274ZM105.325 123.542C105.325 125.007 105.662 126.183 106.338 127.07C107.021 127.957 107.933 128.401 109.072 128.401C110.22 128.401 111.131 127.953 111.807 127.058C112.482 126.155 112.82 124.893 112.82 123.274C112.82 121.825 112.474 120.653 111.782 119.758C111.099 118.855 110.187 118.403 109.048 118.403C107.933 118.403 107.034 118.847 106.35 119.734C105.667 120.621 105.325 121.89 105.325 123.542ZM129.067 123.542C129.067 125.553 128.608 127.172 127.688 128.401C126.768 129.63 125.523 130.244 123.953 130.244C122.349 130.244 121.088 129.736 120.168 128.718V135.078H117.91V116.792H119.973L120.083 118.257C121.003 117.118 122.28 116.548 123.916 116.548C125.503 116.548 126.756 117.146 127.676 118.342C128.604 119.539 129.067 121.203 129.067 123.335V123.542ZM126.809 123.286C126.809 121.797 126.492 120.621 125.857 119.758C125.222 118.896 124.351 118.464 123.245 118.464C121.877 118.464 120.852 119.071 120.168 120.283V126.594C120.844 127.799 121.877 128.401 123.269 128.401C124.351 128.401 125.21 127.974 125.845 127.119C126.488 126.257 126.809 124.979 126.809 123.286ZM140.493 116.792H142.751V130H140.493V120.369L134.402 130H132.144V116.792H134.402V126.436L140.493 116.792ZM153.64 120.405C153.64 119.787 153.404 119.299 152.932 118.94C152.46 118.574 151.813 118.391 150.991 118.391C150.194 118.391 149.526 118.599 148.989 119.014C148.46 119.429 148.196 119.917 148.196 120.479H145.95C145.95 119.331 146.43 118.391 147.39 117.659C148.35 116.926 149.551 116.56 150.991 116.56C152.537 116.56 153.742 116.894 154.604 117.561C155.467 118.22 155.898 119.164 155.898 120.393C155.898 120.987 155.719 121.532 155.361 122.029C155.003 122.525 154.495 122.92 153.835 123.213C155.374 123.734 156.143 124.759 156.143 126.289C156.143 127.502 155.675 128.462 154.739 129.17C153.803 129.878 152.554 130.232 150.991 130.232C149.469 130.232 148.212 129.862 147.219 129.121C146.235 128.372 145.742 127.363 145.742 126.094H147.988C147.988 126.737 148.273 127.29 148.843 127.754C149.421 128.21 150.137 128.438 150.991 128.438C151.854 128.438 152.55 128.238 153.079 127.839C153.608 127.441 153.872 126.924 153.872 126.289C153.872 125.549 153.648 125.02 153.201 124.702C152.761 124.377 152.074 124.214 151.138 124.214H148.879V122.31H151.333C152.871 122.269 153.64 121.634 153.64 120.405ZM167.227 130C167.096 129.74 166.991 129.276 166.909 128.608C165.859 129.699 164.606 130.244 163.149 130.244C161.847 130.244 160.777 129.878 159.939 129.146C159.109 128.405 158.694 127.469 158.694 126.338C158.694 124.963 159.215 123.896 160.256 123.14C161.306 122.375 162.779 121.992 164.675 121.992H166.873V120.955C166.873 120.165 166.637 119.539 166.165 119.075C165.693 118.603 164.997 118.367 164.077 118.367C163.271 118.367 162.596 118.57 162.051 118.977C161.506 119.384 161.233 119.876 161.233 120.454H158.962C158.962 119.795 159.194 119.16 159.658 118.55C160.13 117.931 160.765 117.443 161.562 117.085C162.368 116.727 163.251 116.548 164.211 116.548C165.733 116.548 166.925 116.93 167.788 117.695C168.651 118.452 169.098 119.498 169.131 120.833V126.912C169.131 128.124 169.285 129.089 169.595 129.805V130H167.227ZM163.479 128.279C164.187 128.279 164.858 128.096 165.493 127.729C166.128 127.363 166.588 126.887 166.873 126.301V123.591H165.103C162.336 123.591 160.952 124.401 160.952 126.021C160.952 126.729 161.188 127.282 161.66 127.681C162.132 128.079 162.738 128.279 163.479 128.279ZM172.866 116.792H175.137V128.157H181.216V116.792H183.474V128.157H185.049L184.829 133.918H182.803V130H172.866V116.792ZM196.035 116.792H198.293V130H196.035V120.369L189.944 130H187.686V116.792H189.944V126.436L196.035 116.792ZM212.014 116.792V130H209.744V124.861H206.338L203.225 130H200.784L204.104 124.519C203.258 124.21 202.607 123.734 202.151 123.091C201.703 122.44 201.479 121.683 201.479 120.82C201.479 119.616 201.931 118.647 202.834 117.915C203.738 117.174 204.946 116.8 206.46 116.792H212.014ZM203.75 120.845C203.75 121.488 203.97 122.008 204.409 122.407C204.849 122.798 205.431 122.997 206.155 123.005H209.744V118.623H206.497C205.658 118.623 204.991 118.831 204.495 119.246C203.998 119.653 203.75 120.186 203.75 120.845Z" fill="white"/>
<path opacity="0.2" d="M13.7109 205.242H18.5977C21.668 205.195 24.082 204.387 25.8398 202.816C27.5977 201.246 28.4766 199.125 28.4766 196.453C28.4766 190.453 25.4883 187.453 19.5117 187.453C16.6992 187.453 14.4492 188.262 12.7617 189.879C11.0977 191.473 10.2656 193.594 10.2656 196.242H3.76172C3.76172 192.188 5.23828 188.824 8.19141 186.152C11.168 183.457 14.9414 182.109 19.5117 182.109C24.3398 182.109 28.125 183.387 30.8672 185.941C33.6094 188.496 34.9805 192.047 34.9805 196.594C34.9805 198.82 34.2539 200.977 32.8008 203.062C31.3711 205.148 29.4141 206.707 26.9297 207.738C29.7422 208.629 31.9102 210.105 33.4336 212.168C34.9805 214.23 35.7539 216.75 35.7539 219.727C35.7539 224.32 34.2539 227.965 31.2539 230.66C28.2539 233.355 24.3516 234.703 19.5469 234.703C14.7422 234.703 10.8281 233.402 7.80469 230.801C4.80469 228.199 3.30469 224.766 3.30469 220.5H9.84375C9.84375 223.195 10.7227 225.352 12.4805 226.969C14.2383 228.586 16.5938 229.395 19.5469 229.395C22.6875 229.395 25.0898 228.574 26.7539 226.934C28.418 225.293 29.25 222.938 29.25 219.867C29.25 216.891 28.3359 214.605 26.5078 213.012C24.6797 211.418 22.043 210.598 18.5977 210.551H13.7109V205.242Z" fill="#77DDC4"/>
<path opacity="0.8" d="M12.1875 200.438H16.5312C19.2604 200.396 21.4062 199.677 22.9688 198.281C24.5312 196.885 25.3125 195 25.3125 192.625C25.3125 187.292 22.6562 184.625 17.3438 184.625C14.8438 184.625 12.8438 185.344 11.3438 186.781C9.86458 188.198 9.125 190.083 9.125 192.438H3.34375C3.34375 188.833 4.65625 185.844 7.28125 183.469C9.92708 181.073 13.2812 179.875 17.3438 179.875C21.6354 179.875 25 181.01 27.4375 183.281C29.875 185.552 31.0938 188.708 31.0938 192.75C31.0938 194.729 30.4479 196.646 29.1562 198.5C27.8854 200.354 26.1458 201.74 23.9375 202.656C26.4375 203.448 28.3646 204.76 29.7188 206.594C31.0938 208.427 31.7812 210.667 31.7812 213.312C31.7812 217.396 30.4479 220.635 27.7812 223.031C25.1146 225.427 21.6458 226.625 17.375 226.625C13.1042 226.625 9.625 225.469 6.9375 223.156C4.27083 220.844 2.9375 217.792 2.9375 214H8.75C8.75 216.396 9.53125 218.312 11.0938 219.75C12.6562 221.188 14.75 221.906 17.375 221.906C20.1667 221.906 22.3021 221.177 23.7812 219.719C25.2604 218.26 26 216.167 26 213.438C26 210.792 25.1875 208.76 23.5625 207.344C21.9375 205.927 19.5938 205.198 16.5312 205.156H12.1875V200.438Z" fill="#77DDC4"/>
<path d="M73.269 194.953H75.6128V212.726H73.269V199.03L64.5166 212.726H62.1606V194.953H64.5166V208.649L73.269 194.953ZM90.3223 212.726H88.064V207.087H81.9971V212.726H79.7266V199.518H81.9971V205.243H88.064V199.518H90.3223V212.726ZM94.1675 212.726V199.518H99.3188C101.077 199.518 102.424 199.827 103.359 200.446C104.303 201.056 104.775 201.956 104.775 203.144C104.775 203.754 104.592 204.307 104.226 204.804C103.86 205.292 103.319 205.666 102.603 205.927C103.4 206.114 104.039 206.48 104.519 207.026C105.007 207.571 105.251 208.222 105.251 208.979C105.251 210.191 104.804 211.119 103.909 211.762C103.022 212.405 101.764 212.726 100.137 212.726H94.1675ZM96.4258 206.928V210.907H100.161C101.105 210.907 101.809 210.732 102.273 210.382C102.745 210.033 102.981 209.54 102.981 208.905C102.981 207.587 102.013 206.928 100.076 206.928H96.4258ZM96.4258 205.121H99.3433C101.459 205.121 102.517 204.503 102.517 203.266C102.517 202.029 101.516 201.39 99.5142 201.349H96.4258V205.121ZM113.723 212.97C111.933 212.97 110.476 212.384 109.353 211.213C108.23 210.033 107.668 208.458 107.668 206.488V206.073C107.668 204.763 107.917 203.595 108.413 202.57C108.918 201.536 109.618 200.731 110.513 200.153C111.416 199.567 112.393 199.274 113.442 199.274C115.16 199.274 116.494 199.84 117.446 200.971C118.398 202.102 118.875 203.721 118.875 205.829V206.769H109.927C109.959 208.071 110.338 209.125 111.062 209.931C111.794 210.728 112.722 211.127 113.845 211.127C114.643 211.127 115.318 210.964 115.872 210.639C116.425 210.313 116.909 209.882 117.324 209.345L118.704 210.419C117.597 212.12 115.937 212.97 113.723 212.97ZM113.442 201.13C112.531 201.13 111.766 201.463 111.147 202.13C110.529 202.79 110.146 203.717 110 204.914H116.616V204.743C116.551 203.595 116.242 202.708 115.688 202.082C115.135 201.447 114.386 201.13 113.442 201.13ZM126.797 211.127C127.603 211.127 128.306 210.883 128.909 210.395C129.511 209.906 129.845 209.296 129.91 208.564H132.046C132.005 209.32 131.745 210.041 131.265 210.724C130.785 211.408 130.142 211.953 129.336 212.36C128.538 212.767 127.692 212.97 126.797 212.97C124.998 212.97 123.566 212.372 122.5 211.176C121.442 209.971 120.913 208.328 120.913 206.244V205.866C120.913 204.58 121.149 203.437 121.621 202.436C122.093 201.435 122.769 200.658 123.647 200.104C124.535 199.551 125.58 199.274 126.785 199.274C128.266 199.274 129.495 199.718 130.471 200.605C131.456 201.492 131.981 202.643 132.046 204.059H129.91C129.845 203.205 129.519 202.505 128.933 201.96C128.355 201.406 127.639 201.13 126.785 201.13C125.637 201.13 124.746 201.545 124.111 202.375C123.485 203.197 123.171 204.389 123.171 205.951V206.379C123.171 207.9 123.485 209.072 124.111 209.894C124.738 210.716 125.633 211.127 126.797 211.127ZM144.399 201.349H139.968V212.726H137.71V201.349H133.364V199.518H144.399V201.349ZM155.142 199.518H157.4V212.726H155.142V203.095L149.05 212.726H146.792V199.518H149.05V209.162L155.142 199.518ZM172.183 206.269C172.183 208.279 171.723 209.898 170.803 211.127C169.884 212.356 168.639 212.97 167.068 212.97C165.465 212.97 164.203 212.462 163.284 211.444V217.804H161.025V199.518H163.088L163.198 200.983C164.118 199.844 165.396 199.274 167.031 199.274C168.618 199.274 169.871 199.872 170.791 201.068C171.719 202.265 172.183 203.929 172.183 206.061V206.269ZM169.924 206.012C169.924 204.523 169.607 203.347 168.972 202.484C168.337 201.622 167.467 201.191 166.36 201.191C164.993 201.191 163.967 201.797 163.284 203.009V209.32C163.959 210.525 164.993 211.127 166.384 211.127C167.467 211.127 168.325 210.7 168.96 209.845C169.603 208.983 169.924 207.705 169.924 206.012ZM174.465 206C174.465 204.706 174.718 203.542 175.222 202.509C175.735 201.475 176.443 200.678 177.346 200.116C178.258 199.555 179.295 199.274 180.459 199.274C182.257 199.274 183.71 199.897 184.817 201.142C185.932 202.387 186.489 204.043 186.489 206.11V206.269C186.489 207.554 186.241 208.71 185.745 209.735C185.256 210.753 184.552 211.546 183.633 212.116C182.721 212.686 181.672 212.97 180.483 212.97C178.693 212.97 177.24 212.348 176.125 211.103C175.019 209.858 174.465 208.21 174.465 206.159V206ZM176.736 206.269C176.736 207.734 177.074 208.909 177.749 209.797C178.433 210.684 179.344 211.127 180.483 211.127C181.631 211.127 182.542 210.679 183.218 209.784C183.893 208.881 184.231 207.62 184.231 206C184.231 204.552 183.885 203.38 183.193 202.484C182.51 201.581 181.598 201.13 180.459 201.13C179.344 201.13 178.445 201.573 177.761 202.46C177.078 203.347 176.736 204.617 176.736 206.269ZM189.529 212.726V199.518H194.68C196.438 199.518 197.785 199.827 198.721 200.446C199.665 201.056 200.137 201.956 200.137 203.144C200.137 203.754 199.954 204.307 199.587 204.804C199.221 205.292 198.68 205.666 197.964 205.927C198.761 206.114 199.4 206.48 199.88 207.026C200.369 207.571 200.613 208.222 200.613 208.979C200.613 210.191 200.165 211.119 199.27 211.762C198.383 212.405 197.126 212.726 195.498 212.726H189.529ZM191.787 206.928V210.907H195.522C196.466 210.907 197.17 210.732 197.634 210.382C198.106 210.033 198.342 209.54 198.342 208.905C198.342 207.587 197.374 206.928 195.437 206.928H191.787ZM191.787 205.121H194.705C196.82 205.121 197.878 204.503 197.878 203.266C197.878 202.029 196.877 201.39 194.875 201.349H191.787V205.121ZM211.758 212.726C211.628 212.466 211.522 212.002 211.44 211.335C210.391 212.425 209.137 212.97 207.681 212.97C206.379 212.97 205.308 212.604 204.47 211.872C203.64 211.131 203.225 210.195 203.225 209.064C203.225 207.689 203.746 206.623 204.788 205.866C205.837 205.101 207.31 204.718 209.207 204.718H211.404V203.681C211.404 202.891 211.168 202.265 210.696 201.801C210.224 201.329 209.528 201.093 208.608 201.093C207.803 201.093 207.127 201.296 206.582 201.703C206.037 202.11 205.764 202.602 205.764 203.18H203.494C203.494 202.521 203.726 201.886 204.189 201.276C204.661 200.658 205.296 200.169 206.094 199.811C206.899 199.453 207.782 199.274 208.743 199.274C210.264 199.274 211.457 199.657 212.319 200.422C213.182 201.178 213.63 202.224 213.662 203.559V209.638C213.662 210.85 213.817 211.815 214.126 212.531V212.726H211.758ZM208.01 211.005C208.718 211.005 209.39 210.822 210.024 210.456C210.659 210.089 211.119 209.613 211.404 209.027V206.318H209.634C206.867 206.318 205.483 207.127 205.483 208.747C205.483 209.455 205.719 210.008 206.191 210.407C206.663 210.806 207.27 211.005 208.01 211.005ZM227.993 212.726H225.735V207.087H219.668V212.726H217.397V199.518H219.668V205.243H225.735V199.518H227.993V212.726ZM240.176 199.518H242.434V212.726H240.176V203.095L234.084 212.726H231.826V199.518H234.084V209.162L240.176 199.518ZM251.541 212.97C249.75 212.97 248.293 212.384 247.17 211.213C246.047 210.033 245.486 208.458 245.486 206.488V206.073C245.486 204.763 245.734 203.595 246.23 202.57C246.735 201.536 247.435 200.731 248.33 200.153C249.233 199.567 250.21 199.274 251.26 199.274C252.977 199.274 254.312 199.84 255.264 200.971C256.216 202.102 256.692 203.721 256.692 205.829V206.769H247.744C247.777 208.071 248.155 209.125 248.879 209.931C249.612 210.728 250.54 211.127 251.663 211.127C252.46 211.127 253.136 210.964 253.689 210.639C254.242 210.313 254.727 209.882 255.142 209.345L256.521 210.419C255.414 212.12 253.754 212.97 251.541 212.97ZM251.26 201.13C250.348 201.13 249.583 201.463 248.965 202.13C248.346 202.79 247.964 203.717 247.817 204.914H254.434V204.743C254.368 203.595 254.059 202.708 253.506 202.082C252.952 201.447 252.204 201.13 251.26 201.13Z" fill="white"/>
</svg>
