<svg width="214" height="52" viewBox="0 0 214 52" fill="none" xmlns="http://www.w3.org/2000/svg">
<path d="M14.436 28.592C14.436 27.584 14.136 26.768 13.536 26.144C12.936 25.496 12.18 24.932 11.268 24.452C10.38 23.948 9.408 23.48 8.352 23.048C7.296 22.616 6.312 22.1 5.4 21.5C4.512 20.876 3.768 20.12 3.168 19.232C2.568 18.32 2.268 17.168 2.268 15.776C2.268 13.808 2.952 12.248 4.32 11.096C5.688 9.944 7.632 9.368 10.152 9.368C11.616 9.368 12.948 9.476 14.148 9.692C15.348 9.908 16.284 10.184 16.956 10.52L16.056 13.148C15.504 12.884 14.688 12.632 13.608 12.392C12.552 12.152 11.352 12.032 10.008 12.032C8.424 12.032 7.236 12.392 6.444 13.112C5.652 13.808 5.256 14.636 5.256 15.596C5.256 16.532 5.556 17.312 6.156 17.936C6.756 18.56 7.5 19.124 8.388 19.628C9.3 20.108 10.284 20.588 11.34 21.068C12.396 21.548 13.368 22.112 14.256 22.76C15.168 23.384 15.924 24.14 16.524 25.028C17.124 25.916 17.424 27.02 17.424 28.34C17.424 29.42 17.232 30.392 16.848 31.256C16.464 32.12 15.9 32.864 15.156 33.488C14.412 34.112 13.512 34.592 12.456 34.928C11.4 35.264 10.2 35.432 8.856 35.432C7.056 35.432 5.568 35.288 4.392 35C3.216 34.736 2.304 34.436 1.656 34.1L2.664 31.4C3.216 31.712 4.032 32.024 5.112 32.336C6.192 32.624 7.404 32.768 8.748 32.768C9.54 32.768 10.284 32.696 10.98 32.552C11.676 32.384 12.276 32.132 12.78 31.796C13.284 31.436 13.68 30.992 13.968 30.464C14.28 29.936 14.436 29.312 14.436 28.592ZM32.445 35V24.812C32.445 23.852 32.397 23.024 32.301 22.328C32.229 21.608 32.073 21.008 31.833 20.528C31.593 20.048 31.245 19.688 30.789 19.448C30.357 19.208 29.781 19.088 29.061 19.088C27.957 19.088 27.033 19.424 26.289 20.096C25.569 20.768 25.065 21.608 24.777 22.616V35H21.897V17H23.913L24.453 19.196H24.597C25.245 18.428 25.989 17.804 26.829 17.324C27.693 16.82 28.809 16.568 30.177 16.568C31.329 16.568 32.265 16.796 32.985 17.252C33.729 17.684 34.305 18.452 34.713 19.556C35.265 18.62 36.021 17.888 36.981 17.36C37.965 16.832 39.069 16.568 40.293 16.568C41.301 16.568 42.153 16.688 42.849 16.928C43.545 17.144 44.121 17.54 44.577 18.116C45.033 18.692 45.357 19.472 45.549 20.456C45.765 21.44 45.873 22.688 45.873 24.2V35H42.993V24.164C42.993 23.3 42.945 22.556 42.849 21.932C42.777 21.284 42.609 20.756 42.345 20.348C42.105 19.916 41.757 19.604 41.301 19.412C40.869 19.196 40.293 19.088 39.573 19.088C38.373 19.088 37.437 19.424 36.765 20.096C36.093 20.768 35.613 21.728 35.325 22.976V35H32.445ZM50.8238 18.332C51.7358 17.78 52.7918 17.372 53.9918 17.108C55.2158 16.844 56.4878 16.712 57.8078 16.712C59.0558 16.712 60.0518 16.88 60.7958 17.216C61.5638 17.552 62.1398 17.996 62.5238 18.548C62.9318 19.076 63.1958 19.664 63.3158 20.312C63.4598 20.96 63.5318 21.608 63.5318 22.256C63.5318 23.696 63.4958 25.1 63.4238 26.468C63.3518 27.836 63.3158 29.132 63.3158 30.356C63.3158 31.244 63.3518 32.084 63.4238 32.876C63.4958 33.668 63.6278 34.4 63.8198 35.072H61.6958L60.9398 32.552H60.7598C60.5438 32.888 60.2678 33.224 59.9318 33.56C59.6198 33.872 59.2358 34.16 58.7798 34.424C58.3238 34.664 57.7958 34.868 57.1958 35.036C56.5958 35.204 55.9118 35.288 55.1438 35.288C54.3758 35.288 53.6558 35.168 52.9838 34.928C52.3358 34.688 51.7718 34.352 51.2918 33.92C50.8118 33.464 50.4278 32.924 50.1398 32.3C49.8758 31.676 49.7438 30.968 49.7438 30.176C49.7438 29.12 49.9598 28.244 50.3918 27.548C50.8238 26.828 51.4238 26.264 52.1918 25.856C52.9838 25.424 53.9198 25.124 54.9998 24.956C56.1038 24.764 57.3158 24.668 58.6358 24.668C58.9718 24.668 59.2958 24.668 59.6078 24.668C59.9438 24.668 60.2798 24.692 60.6158 24.74C60.6878 24.02 60.7238 23.372 60.7238 22.796C60.7238 21.476 60.4598 20.552 59.9318 20.024C59.4038 19.496 58.4438 19.232 57.0518 19.232C56.6438 19.232 56.1998 19.268 55.7198 19.34C55.2638 19.388 54.7838 19.472 54.2798 19.592C53.7998 19.688 53.3318 19.82 52.8758 19.988C52.4438 20.132 52.0598 20.3 51.7238 20.492L50.8238 18.332ZM55.9358 32.768C56.6078 32.768 57.2078 32.684 57.7358 32.516C58.2638 32.324 58.7198 32.096 59.1038 31.832C59.4878 31.544 59.7998 31.232 60.0398 30.896C60.3038 30.56 60.4958 30.236 60.6158 29.924V26.936C60.2798 26.912 59.9318 26.9 59.5718 26.9C59.2358 26.876 58.8998 26.864 58.5638 26.864C57.8198 26.864 57.0878 26.912 56.3678 27.008C55.6718 27.08 55.0478 27.236 54.4958 27.476C53.9678 27.692 53.5358 28.004 53.1998 28.412C52.8878 28.796 52.7318 29.288 52.7318 29.888C52.7318 30.728 53.0318 31.424 53.6318 31.976C54.2318 32.504 54.9998 32.768 55.9358 32.768ZM77.4672 19.772C76.7472 19.532 76.0632 19.412 75.4152 19.412C74.3832 19.412 73.5672 19.7 72.9672 20.276C72.3672 20.828 71.9952 21.536 71.8512 22.4V35H68.9712V17H70.9872L71.5272 19.196H71.6712C72.1272 18.38 72.6672 17.756 73.2912 17.324C73.9392 16.868 74.7552 16.64 75.7392 16.64C76.4352 16.64 77.2152 16.76 78.0792 17L77.4672 19.772ZM79.9194 17H82.7274V13.436L85.6074 12.608V17H90.5034V19.52H85.6074V29.492C85.6074 30.74 85.7634 31.628 86.0754 32.156C86.3874 32.66 86.9154 32.912 87.6594 32.912C88.2834 32.912 88.8114 32.852 89.2434 32.732C89.6754 32.588 90.1554 32.408 90.6834 32.192L91.3314 34.388C90.6834 34.7 89.9754 34.952 89.2074 35.144C88.4394 35.336 87.6114 35.432 86.7234 35.432C85.2594 35.432 84.2274 35.024 83.6274 34.208C83.0274 33.368 82.7274 31.976 82.7274 30.032V19.52H79.9194V17ZM124.26 9.8H127.248V35H124.26V9.8ZM145.32 35V24.74C145.32 22.868 145.044 21.464 144.492 20.528C143.964 19.568 142.98 19.088 141.54 19.088C140.268 19.088 139.212 19.436 138.372 20.132C137.556 20.804 136.98 21.656 136.644 22.688V35H133.764V17H135.78L136.32 19.196H136.464C137.04 18.428 137.808 17.804 138.768 17.324C139.752 16.82 140.916 16.568 142.26 16.568C143.244 16.568 144.108 16.688 144.852 16.928C145.596 17.144 146.208 17.54 146.688 18.116C147.192 18.692 147.564 19.472 147.804 20.456C148.068 21.416 148.2 22.64 148.2 24.128V35H145.32ZM158.636 27.548L159.644 30.968H159.68L160.58 27.476L164.612 17H167.708L160.04 35.396H158.816L151.004 17H154.316L158.636 27.548ZM183.572 33.56C182.852 34.136 181.94 34.592 180.836 34.928C179.756 35.264 178.604 35.432 177.38 35.432C176.012 35.432 174.824 35.216 173.816 34.784C172.808 34.328 171.98 33.692 171.332 32.876C170.684 32.036 170.204 31.04 169.892 29.888C169.58 28.736 169.424 27.44 169.424 26C169.424 22.928 170.108 20.588 171.476 18.98C172.844 17.372 174.8 16.568 177.344 16.568C178.16 16.568 178.976 16.664 179.792 16.856C180.608 17.024 181.34 17.36 181.988 17.864C182.636 18.368 183.164 19.088 183.572 20.024C183.98 20.936 184.184 22.148 184.184 23.66C184.184 24.452 184.112 25.328 183.968 26.288H172.412C172.412 27.344 172.52 28.28 172.736 29.096C172.952 29.912 173.288 30.608 173.744 31.184C174.2 31.736 174.788 32.168 175.508 32.48C176.252 32.768 177.152 32.912 178.208 32.912C179.024 32.912 179.84 32.768 180.656 32.48C181.472 32.192 182.084 31.856 182.492 31.472L183.572 33.56ZM177.38 19.088C175.964 19.088 174.824 19.46 173.96 20.204C173.12 20.948 172.616 22.22 172.448 24.02H181.376C181.376 22.196 181.028 20.924 180.332 20.204C179.636 19.46 178.652 19.088 177.38 19.088ZM196.633 30.104C196.633 29.384 196.417 28.82 195.985 28.412C195.553 28.004 195.013 27.668 194.365 27.404C193.741 27.116 193.045 26.852 192.277 26.612C191.533 26.348 190.837 26.024 190.189 25.64C189.565 25.232 189.037 24.716 188.605 24.092C188.173 23.468 187.957 22.628 187.957 21.572C187.957 19.844 188.449 18.584 189.433 17.792C190.417 16.976 191.785 16.568 193.537 16.568C194.833 16.568 195.913 16.688 196.777 16.928C197.665 17.144 198.433 17.408 199.081 17.72L198.397 20.096C197.845 19.832 197.173 19.604 196.381 19.412C195.613 19.196 194.785 19.088 193.897 19.088C192.841 19.088 192.061 19.268 191.557 19.628C191.077 19.988 190.837 20.612 190.837 21.5C190.837 22.124 191.053 22.616 191.485 22.976C191.917 23.312 192.445 23.624 193.069 23.912C193.717 24.176 194.413 24.44 195.157 24.704C195.925 24.968 196.621 25.316 197.245 25.748C197.893 26.18 198.433 26.732 198.865 27.404C199.297 28.052 199.513 28.916 199.513 29.996C199.513 30.764 199.381 31.484 199.117 32.156C198.877 32.828 198.493 33.404 197.965 33.884C197.437 34.364 196.777 34.736 195.985 35C195.217 35.288 194.305 35.432 193.249 35.432C191.881 35.432 190.717 35.3 189.757 35.036C188.797 34.772 187.993 34.46 187.345 34.1L188.209 31.652C188.761 31.964 189.481 32.252 190.369 32.516C191.257 32.78 192.157 32.912 193.069 32.912C194.101 32.912 194.953 32.708 195.625 32.3C196.297 31.892 196.633 31.16 196.633 30.104ZM201.49 17H204.298V13.436L207.178 12.608V17H212.074V19.52H207.178V29.492C207.178 30.74 207.334 31.628 207.646 32.156C207.958 32.66 208.486 32.912 209.23 32.912C209.854 32.912 210.382 32.852 210.814 32.732C211.246 32.588 211.726 32.408 212.254 32.192L212.902 34.388C212.254 34.7 211.546 34.952 210.778 35.144C210.01 35.336 209.182 35.432 208.294 35.432C206.83 35.432 205.798 35.024 205.198 34.208C204.598 33.368 204.298 31.976 204.298 30.032V19.52H201.49V17Z" fill="white"/>
<g filter="url(#filter0_d)">
<path d="M104.655 22.98L95.07 7.5H99.57L105.96 18.165L107.085 20.73L108.165 18.165L114.915 7.5H119.055L109.155 22.665L119.505 39H115.14L108.03 27.705L106.815 25.005L105.645 27.705L98.355 39H94.17L104.655 22.98Z" fill="#92E4D0"/>
</g>
<defs>
<filter id="filter0_d" x="85.17" y="2.5" width="43.335" height="49.5" filterUnits="userSpaceOnUse" color-interpolation-filters="sRGB">
<feFlood flood-opacity="0" result="BackgroundImageFix"/>
<feColorMatrix in="SourceAlpha" type="matrix" values="0 0 0 0 0 0 0 0 0 0 0 0 0 0 0 0 0 0 127 0"/>
<feOffset dy="4"/>
<feGaussianBlur stdDeviation="4.5"/>
<feColorMatrix type="matrix" values="0 0 0 0 0.572549 0 0 0 0 0.894118 0 0 0 0 0.815686 0 0 0 0.45 0"/>
<feBlend mode="normal" in2="BackgroundImageFix" result="effect1_dropShadow"/>
<feBlend mode="normal" in="SourceGraphic" in2="effect1_dropShadow" result="shape"/>
</filter>
</defs>
</svg>
